<?xml version="1.0" encoding="utf-8"?>
<!-- Generator: Adobe Illustrator 23.0.3, SVG Export Plug-In . SVG Version: 6.00 Build 0)  -->
<svg version="1.1" id="Layer_1" xmlns="http://www.w3.org/2000/svg" xmlns:xlink="http://www.w3.org/1999/xlink" x="0px" y="0px"
	 viewBox="0 0 387.9 387.9" style="enable-background:new 0 0 387.9 387.9;" xml:space="preserve">
<style type="text/css">
	.st0{fill:#258ACE;}
	.st1{fill:#FDB735;}
	.st2{fill:#36C136;}
	.st3{fill:#FD2475;}
	.st4{fill:#895EAD;}
	.st5{fill:#D83632;}
	.st6{fill:#30D4A2;}
	.st7{fill:#46CCCC;}
	.st8{fill:#4CC3CB;}
	.st9{fill:#60B0E2;}
	.st10{fill:none;stroke:#000000;stroke-width:14;stroke-miterlimit:10;}
	.st11{fill:#FFFFFF;}
</style>
<circle cx="194" cy="194" r="168.8"/>
<path class="st11" d="M194.1,118.4c-41.2-0.2-69.7,41.7-54.4,78.7c11,26.6,28.9,48.5,48,69.5c3.7,4.1,8.9,3.8,12.8-0.2
	c3.4-3.5,6.5-7.2,9.6-10.9c14.5-17.5,27.8-35.6,37.4-56.4C264.9,160.6,234.8,118.2,194.1,118.4z M193.6,202.1
	c-14.5-0.3-26-12.2-25.9-26.7c0.1-14.5,11.9-26.1,26.5-26.1c14.5,0.1,26.3,12,26.3,26.4C220.4,190.4,208.2,202.4,193.6,202.1z"/>
</svg>
